# xmcd
#
# Track frame offsets:
#	150
#	18532
#	37650
#	53877
#	72275
#	95350
#	113795
#	131310
#	149750
#	170332
#	195015
#	212532
#	230010
#	252245
#
# Disc length: 3639 seconds
#
# Revision: 0
# Processed by: cddbd v1.4PL0 Copyright (c) Steve Scherf et al.
# Submitted via: audiograbber 1.81.01
#
DISCID=b90e350e
DTITLE=Chris de Burgh - Lady in Red
DYEAR=1900
DGENRE=
TTITLE0=Lady in Red
TTITLE1=Missing You
TTITLE2=Don't Pay The Ferryman
TTITLE3=Carry Me
TTITLE4=Spanish Train
TTITLE5=The Ecstasy Of Flight
TTITLE6=Where Peaceful Waters Flow
TTITLE7=The Traveller
TTITLE8=Tender Hands
TTITLE9=Making The Perfect Man
TTITLE10=Separate Tables
TTITLE11=Fatal Hesination
TTITLE12=Borderline 
TTITLE13=Say Goodbye To lt All 
EXTD=
EXTT0=
EXTT1=
EXTT2=
EXTT3=
EXTT4=
EXTT5=
EXTT6=
EXTT7=
EXTT8=
EXTT9=
EXTT10=
EXTT11=
EXTT12=
EXTT13=
PLAYORDER=
